<svg width="462" height="141" viewBox="0 0 462 141" fill="none" xmlns="http://www.w3.org/2000/svg">
<g filter="url(#filter0_d_112_573)">
<path d="M44.2 113H19.2996L47.354 28.0068H78.8945L106.949 113H82.0485L63.4562 51.4131H62.7922L44.2 113ZM39.5519 79.4675H86.3646V96.7318H39.5519V79.4675ZM115.135 113V28.0068H151.987C158.461 28.0068 163.898 28.8783 168.297 30.6213C172.724 32.3643 176.058 34.8267 178.299 38.0084C180.567 41.1901 181.702 44.939 181.702 49.2551C181.702 52.3815 181.01 55.2312 179.627 57.8042C178.271 60.3772 176.362 62.5353 173.9 64.2783C171.437 65.9937 168.56 67.1833 165.268 67.8473V68.6774C168.92 68.8157 172.24 69.7425 175.228 71.4579C178.216 73.1456 180.595 75.4835 182.366 78.4715C184.136 81.4319 185.022 84.9179 185.022 88.9297C185.022 93.5777 183.804 97.7139 181.37 101.338C178.963 104.963 175.532 107.812 171.078 109.887C166.623 111.962 161.311 113 155.141 113H115.135ZM138.209 94.5737H148.999C152.873 94.5737 155.778 93.8544 157.714 92.4157C159.651 90.9493 160.619 88.7913 160.619 85.9416C160.619 83.9496 160.163 82.2619 159.25 80.8785C158.337 79.4952 157.037 78.4438 155.349 77.7245C153.689 77.0051 151.683 76.6455 149.331 76.6455H138.209V94.5737ZM138.209 62.3693H147.671C149.691 62.3693 151.476 62.0511 153.025 61.4148C154.574 60.7784 155.778 59.8654 156.635 58.6757C157.521 57.4584 157.963 55.9782 157.963 54.2352C157.963 51.6068 157.023 49.6009 155.141 48.2176C153.26 46.8066 150.881 46.101 148.003 46.101H138.209V62.3693ZM275.535 70.5034C275.535 79.9655 273.695 87.9475 270.015 94.4492C266.335 100.923 261.369 105.834 255.116 109.182C248.864 112.502 241.892 114.162 234.2 114.162C226.453 114.162 219.454 112.488 213.201 109.14C206.976 105.765 202.023 100.84 198.344 94.3662C194.691 87.8645 192.865 79.9102 192.865 70.5034C192.865 61.0413 194.691 53.0731 198.344 46.599C202.023 40.0973 206.976 35.1864 213.201 31.8663C219.454 28.5186 226.453 26.8448 234.2 26.8448C241.892 26.8448 248.864 28.5186 255.116 31.8663C261.369 35.1864 266.335 40.0973 270.015 46.599C273.695 53.0731 275.535 61.0413 275.535 70.5034ZM251.796 70.5034C251.796 65.4126 251.118 61.1243 249.763 57.6382C248.435 54.1245 246.457 51.4684 243.828 49.6701C241.227 47.8441 238.018 46.931 234.2 46.931C230.382 46.931 227.159 47.8441 224.53 49.6701C221.93 51.4684 219.952 54.1245 218.596 57.6382C217.268 61.1243 216.604 65.4126 216.604 70.5034C216.604 75.5941 217.268 79.8964 218.596 83.4101C219.952 86.8961 221.93 89.5522 224.53 91.3782C227.159 93.1765 230.382 94.0757 234.2 94.0757C238.018 94.0757 241.227 93.1765 243.828 91.3782C246.457 89.5522 248.435 86.8961 249.763 83.4101C251.118 79.8964 251.796 75.5941 251.796 70.5034ZM336.509 28.0068H359.584V82.4556C359.584 88.9297 358.034 94.5322 354.936 99.2633C351.865 103.967 347.576 107.605 342.07 110.178C336.565 112.723 330.174 113.996 322.897 113.996C315.565 113.996 309.147 112.723 303.641 110.178C298.135 107.605 293.847 103.967 290.776 99.2633C287.732 94.5322 286.211 88.9297 286.211 82.4556V28.0068H309.285V80.4635C309.285 83.0919 309.866 85.4436 311.028 87.5186C312.19 89.566 313.795 91.1707 315.842 92.3327C317.917 93.4947 320.269 94.0757 322.897 94.0757C325.553 94.0757 327.905 93.4947 329.952 92.3327C332 91.1707 333.604 89.566 334.766 87.5186C335.928 85.4436 336.509 83.0919 336.509 80.4635V28.0068ZM368.226 46.599V28.0068H442.097V46.599H416.533V113H393.791V46.599H368.226Z" fill="#F6F6F6"/>
</g>
<g filter="url(#filter1_d_112_573)">
<path d="M383.504 49.5498H370.622V79.9476C370.622 83.562 371.487 86.6898 373.217 89.331C374.932 91.9569 377.326 93.988 380.4 95.4245C383.473 96.8455 387.041 97.5561 391.104 97.5561C395.197 97.5561 398.78 96.8455 401.854 95.4245C404.928 93.988 407.322 91.9569 409.037 89.331C410.736 86.6898 411.585 83.562 411.585 79.9476V49.5498H398.703V78.8355C398.703 80.3028 398.379 81.6158 397.73 82.7742C397.081 83.9172 396.186 84.8131 395.043 85.4618C393.884 86.1105 392.571 86.4349 391.104 86.4349C389.621 86.4349 388.308 86.1105 387.165 85.4618C386.022 84.8131 385.126 83.9172 384.477 82.7742C383.829 81.6158 383.504 80.3028 383.504 78.8355V49.5498ZM338.921 64.378C339.045 62.8334 339.624 61.6286 340.659 60.7636C341.678 59.8986 343.231 59.4661 345.316 59.4661C346.644 59.4661 347.733 59.6283 348.583 59.9527C349.417 60.2616 350.035 60.6864 350.436 61.227C350.838 61.7676 351.046 62.3854 351.062 63.0805C351.093 63.652 350.992 64.1695 350.761 64.6328C350.514 65.0808 350.127 65.4901 349.602 65.8608C349.077 66.2161 348.405 66.5404 347.587 66.8339C346.768 67.1274 345.795 67.39 344.667 67.6216L340.775 68.4557C338.149 69.0118 335.902 69.7455 334.033 70.6568C332.164 71.5681 330.635 72.6416 329.445 73.8773C328.256 75.0975 327.383 76.4722 326.827 78.0014C326.256 79.5305 325.962 81.1987 325.947 83.0059C325.962 86.126 326.742 88.7673 328.287 90.9297C329.831 93.0922 332.04 94.7372 334.913 95.8647C337.771 96.9923 341.207 97.5561 345.223 97.5561C349.347 97.5561 352.946 96.9459 356.02 95.7257C359.078 94.5055 361.457 92.6288 363.156 90.0956C364.84 87.547 365.689 84.2879 365.705 80.3183H353.471C353.394 81.7702 353.031 82.9904 352.383 83.979C351.734 84.9675 350.822 85.7167 349.649 86.2264C348.459 86.7361 347.046 86.991 345.409 86.991C344.034 86.991 342.883 86.8211 341.956 86.4813C341.03 86.1414 340.327 85.6703 339.848 85.0679C339.369 84.4655 339.122 83.7782 339.107 83.0059C339.122 82.2799 339.362 81.6466 339.825 81.106C340.273 80.55 341.014 80.0557 342.049 79.6232C343.084 79.1753 344.482 78.7582 346.243 78.3721L350.969 77.3526C355.171 76.4413 358.484 74.9199 360.909 72.7883C363.318 70.6413 364.515 67.7143 364.5 64.0073C364.515 60.9953 363.712 58.3618 362.09 56.1066C360.453 53.8361 358.19 52.0675 355.302 50.8009C352.398 49.5343 349.069 48.9011 345.316 48.9011C341.485 48.9011 338.172 49.5421 335.376 50.8241C332.581 52.1061 330.426 53.9133 328.912 56.2456C327.383 58.5626 326.611 61.2733 326.595 64.378H338.921Z" fill="#F6F6F6"/>
</g>
<defs>
<filter id="filter0_d_112_573" x="-0.00019455" y="11.5447" width="461.398" height="125.917" filterUnits="userSpaceOnUse" color-interpolation-filters="sRGB">
<feFlood flood-opacity="0" result="BackgroundImageFix"/>
<feColorMatrix in="SourceAlpha" type="matrix" values="0 0 0 0 0 0 0 0 0 0 0 0 0 0 0 0 0 0 127 0" result="hardAlpha"/>
<feOffset dy="4"/>
<feGaussianBlur stdDeviation="9.65"/>
<feComposite in2="hardAlpha" operator="out"/>
<feColorMatrix type="matrix" values="0 0 0 0 0 0 0 0 0 0 0 0 0 0 0 0 0 0 0.13 0"/>
<feBlend mode="normal" in2="BackgroundImageFix" result="effect1_dropShadow_112_573"/>
<feBlend mode="normal" in="SourceGraphic" in2="effect1_dropShadow_112_573" result="shape"/>
</filter>
<filter id="filter1_d_112_573" x="323.713" y="48.9011" width="90.1049" height="53.1213" filterUnits="userSpaceOnUse" color-interpolation-filters="sRGB">
<feFlood flood-opacity="0" result="BackgroundImageFix"/>
<feColorMatrix in="SourceAlpha" type="matrix" values="0 0 0 0 0 0 0 0 0 0 0 0 0 0 0 0 0 0 127 0" result="hardAlpha"/>
<feOffset dy="2.23313"/>
<feGaussianBlur stdDeviation="1.11656"/>
<feComposite in2="hardAlpha" operator="out"/>
<feColorMatrix type="matrix" values="0 0 0 0 0 0 0 0 0 0 0 0 0 0 0 0 0 0 0.09 0"/>
<feBlend mode="normal" in2="BackgroundImageFix" result="effect1_dropShadow_112_573"/>
<feBlend mode="normal" in="SourceGraphic" in2="effect1_dropShadow_112_573" result="shape"/>
</filter>
</defs>
</svg>
