<svg width="21" height="21" viewBox="0 0 21 21" fill="none" xmlns="http://www.w3.org/2000/svg">
<path d="M10.04 0C15.5851 0 20.0808 4.49504 20.0811 10.04C20.0811 15.5852 15.5852 20.0811 10.04 20.0811C4.49504 20.0808 0 15.5851 0 10.04C0.000240164 4.49519 4.49519 0.000240169 10.04 0ZM15.2168 5.83594C14.7435 5.44203 14.0398 5.5065 13.6455 5.97949L9.63184 10.7959C9.24538 11.2596 9.02802 11.5169 8.85449 11.6748C8.85253 11.6766 8.8496 11.678 8.84766 11.6797C8.84563 11.6782 8.84289 11.6773 8.84082 11.6758C8.65365 11.5342 8.41346 11.2972 7.98633 10.8701L6.36719 9.25098C5.93159 8.81557 5.22469 8.81563 4.78906 9.25098C4.35345 9.68659 4.35357 10.3934 4.78906 10.8291L6.4082 12.4482C6.7886 12.8286 7.15469 13.1983 7.49414 13.4551C7.85935 13.7312 8.33824 13.9907 8.95117 13.9629C9.564 13.935 10.0168 13.6333 10.3555 13.3252C10.6702 13.0388 11.0014 12.6378 11.3457 12.2246L15.3604 7.40723C15.7543 6.9339 15.6899 6.23022 15.2168 5.83594Z" fill="#FD0000"/>
</svg>
