<svg width="43" height="27" viewBox="0 0 43 27" fill="none" xmlns="http://www.w3.org/2000/svg">
<path d="M3.68591e-06 26.652V1.23623e-06H11.6507C14.5444 1.23623e-06 17.0827 0.558424 19.2656 1.67527C21.4485 2.79212 23.1492 4.34047 24.3675 6.32033C25.5859 8.3002 26.1951 10.6354 26.1951 13.326C26.1951 15.9912 25.5859 18.3264 24.3675 20.3317C23.1492 22.3115 21.4485 23.8599 19.2656 24.9767C17.0827 26.0936 14.5444 26.652 11.6507 26.652H3.68591e-06ZM4.94966 22.4638H11.4223C13.4275 22.4638 15.1536 22.0831 16.6004 21.3216C18.0726 20.5601 19.2021 19.494 19.989 18.1234C20.8013 16.7527 21.2074 15.1536 21.2074 13.326C21.2074 11.4731 20.8013 9.87393 19.989 8.52864C19.2021 7.15797 18.0726 6.09189 16.6004 5.3304C15.1536 4.56892 13.4275 4.18817 11.4223 4.18817H4.94966V22.4638ZM29.1063 26.652V4.18817H20.2731V1.23623e-06H42.8892V4.18817H34.056V26.652H29.1063Z" fill="white"/>
<path d="M21.3487 26.652L9.69794 1.23623e-06H15.0664L25.4607 24.101H22.3767L32.8852 1.23623e-06H37.8348L26.2222 26.652H21.3487Z" fill="#FD0000"/>
</svg>
