<svg width="163" height="25" viewBox="0 0 163 25" fill="none" xmlns="http://www.w3.org/2000/svg">
<g clip-path="url(#clip0_139_745)">
<g clip-path="url(#clip1_139_745)">
<g clip-path="url(#clip2_139_745)">
<g clip-path="url(#clip3_139_745)">
<path d="M11.4912 1.73456C11.8625 0.834573 13.1371 0.834573 13.5083 1.73456L15.7391 7.14386C16.046 7.888 16.7377 8.40272 17.5387 8.48297L23.1863 9.04882C24.1209 9.14246 24.5082 10.2947 23.8198 10.9338L19.454 14.987C18.8918 15.5089 18.6451 16.2877 18.804 17.0381L20.0605 22.9694C20.2596 23.9094 19.2343 24.6291 18.4179 24.1224L13.6505 21.163C12.9457 20.7254 12.0538 20.7254 11.3491 21.163L6.58162 24.1224C5.76529 24.6291 4.73992 23.9094 4.93904 22.9694L6.1955 17.0381C6.35446 16.2877 6.10767 15.5089 5.54551 14.987L1.1797 10.9338C0.491383 10.2947 0.878632 9.14246 1.81318 9.04882L7.46089 8.48297C8.26182 8.40272 8.9535 7.888 9.2604 7.14386L11.4912 1.73456Z" fill="#FF6452"/>
</g>
</g>
</g>
<g clip-path="url(#clip4_139_745)">
<g clip-path="url(#clip5_139_745)">
<g clip-path="url(#clip6_139_745)">
<path d="M45.4912 1.73456C45.8625 0.834573 47.1371 0.834573 47.5083 1.73456L49.7391 7.14386C50.046 7.888 50.7377 8.40272 51.5387 8.48297L57.1863 9.04882C58.1209 9.14246 58.5082 10.2947 57.8198 10.9338L53.454 14.987C52.8918 15.5089 52.6451 16.2877 52.804 17.0381L54.0605 22.9694C54.2596 23.9094 53.2343 24.6291 52.4179 24.1224L47.6505 21.163C46.9457 20.7254 46.0538 20.7254 45.3491 21.163L40.5816 24.1224C39.7653 24.6291 38.7399 23.9094 38.939 22.9694L40.1955 17.0381C40.3545 16.2877 40.1077 15.5089 39.5455 14.987L35.1797 10.9338C34.4914 10.2947 34.8786 9.14246 35.8132 9.04882L41.4609 8.48297C42.2618 8.40272 42.9535 7.888 43.2604 7.14386L45.4912 1.73456Z" fill="#FF6452"/>
</g>
</g>
</g>
<g clip-path="url(#clip7_139_745)">
<g clip-path="url(#clip8_139_745)">
<g clip-path="url(#clip9_139_745)">
<path d="M79.4912 1.73456C79.8625 0.834573 81.1371 0.834573 81.5083 1.73456L83.7391 7.14386C84.046 7.888 84.7377 8.40272 85.5387 8.48297L91.1863 9.04882C92.1209 9.14246 92.5082 10.2947 91.8198 10.9338L87.454 14.987C86.8918 15.5089 86.6451 16.2877 86.804 17.0381L88.0605 22.9694C88.2596 23.9094 87.2343 24.6291 86.4179 24.1224L81.6505 21.163C80.9457 20.7254 80.0538 20.7254 79.3491 21.163L74.5816 24.1224C73.7653 24.6291 72.7399 23.9094 72.939 22.9694L74.1955 17.0381C74.3545 16.2877 74.1077 15.5089 73.5455 14.987L69.1797 10.9338C68.4914 10.2947 68.8786 9.14246 69.8132 9.04882L75.4609 8.48297C76.2618 8.40272 76.9535 7.888 77.2604 7.14386L79.4912 1.73456Z" fill="#FF6452"/>
</g>
</g>
</g>
<g clip-path="url(#clip10_139_745)">
<g clip-path="url(#clip11_139_745)">
<g clip-path="url(#clip12_139_745)">
<path d="M113.491 1.73456C113.862 0.834573 115.137 0.834573 115.508 1.73456L117.739 7.14386C118.046 7.888 118.738 8.40272 119.539 8.48297L125.186 9.04882C126.121 9.14246 126.508 10.2947 125.82 10.9338L121.454 14.987C120.892 15.5089 120.645 16.2877 120.804 17.0381L122.061 22.9694C122.26 23.9094 121.234 24.6291 120.418 24.1224L115.65 21.163C114.946 20.7254 114.054 20.7254 113.349 21.163L108.582 24.1224C107.765 24.6291 106.74 23.9094 106.939 22.9694L108.195 17.0381C108.354 16.2877 108.108 15.5089 107.546 14.987L103.18 10.9338C102.491 10.2947 102.879 9.14246 103.813 9.04882L109.461 8.48297C110.262 8.40272 110.954 7.888 111.26 7.14386L113.491 1.73456Z" fill="#FF6452"/>
</g>
</g>
</g>
<g clip-path="url(#clip13_139_745)">
<g clip-path="url(#clip14_139_745)">
<g clip-path="url(#clip15_139_745)">
<path d="M147.491 1.73456C147.862 0.834573 149.137 0.834573 149.508 1.73456L151.739 7.14386C152.046 7.888 152.738 8.40272 153.539 8.48297L159.186 9.04882C160.121 9.14246 160.508 10.2947 159.82 10.9338L155.454 14.987C154.892 15.5089 154.645 16.2877 154.804 17.0381L156.061 22.9694C156.26 23.9094 155.234 24.6291 154.418 24.1224L149.65 21.163C148.946 20.7254 148.054 20.7254 147.349 21.163L142.582 24.1224C141.765 24.6291 140.74 23.9094 140.939 22.9694L142.195 17.0381C142.354 16.2877 142.108 15.5089 141.546 14.987L137.18 10.9338C136.491 10.2947 136.879 9.14246 137.813 9.04882L143.461 8.48297C144.262 8.40272 144.954 7.888 145.26 7.14386L147.491 1.73456Z" fill="#FF6452"/>
</g>
</g>
</g>
</g>
<defs>
<clipPath id="clip0_139_745">
<rect width="163" height="24.38" fill="white"/>
</clipPath>
<clipPath id="clip1_139_745">
<rect width="24" height="24" fill="white" transform="translate(0 0.189941)"/>
</clipPath>
<clipPath id="clip2_139_745">
<rect width="24" height="24" fill="white" transform="translate(0.5 0.379883)"/>
</clipPath>
<clipPath id="clip3_139_745">
<rect width="24" height="24" fill="white" transform="translate(0.5 0.379883)"/>
</clipPath>
<clipPath id="clip4_139_745">
<rect width="24" height="24" fill="white" transform="translate(34 0.189941)"/>
</clipPath>
<clipPath id="clip5_139_745">
<rect width="24" height="24" fill="white" transform="translate(34.5 0.379883)"/>
</clipPath>
<clipPath id="clip6_139_745">
<rect width="24" height="24" fill="white" transform="translate(34.5 0.379883)"/>
</clipPath>
<clipPath id="clip7_139_745">
<rect width="24" height="24" fill="white" transform="translate(68 0.189941)"/>
</clipPath>
<clipPath id="clip8_139_745">
<rect width="24" height="24" fill="white" transform="translate(68.5 0.379883)"/>
</clipPath>
<clipPath id="clip9_139_745">
<rect width="24" height="24" fill="white" transform="translate(68.5 0.379883)"/>
</clipPath>
<clipPath id="clip10_139_745">
<rect width="24" height="24" fill="white" transform="translate(102 0.189941)"/>
</clipPath>
<clipPath id="clip11_139_745">
<rect width="24" height="24" fill="white" transform="translate(102.5 0.379883)"/>
</clipPath>
<clipPath id="clip12_139_745">
<rect width="24" height="24" fill="white" transform="translate(102.5 0.379883)"/>
</clipPath>
<clipPath id="clip13_139_745">
<rect width="24" height="24" fill="white" transform="translate(136 0.189941)"/>
</clipPath>
<clipPath id="clip14_139_745">
<rect width="24" height="24" fill="white" transform="translate(136.5 0.379883)"/>
</clipPath>
<clipPath id="clip15_139_745">
<rect width="24" height="24" fill="white" transform="translate(136.5 0.379883)"/>
</clipPath>
</defs>
</svg>
