<svg width="43" height="43" viewBox="0 0 43 43" fill="none" xmlns="http://www.w3.org/2000/svg">
<path d="M31.3082 24.2356L35.9904 28.9178C36.62 29.5474 36.62 30.5682 35.9904 31.1978C32.5864 34.6019 27.1973 34.9848 23.3462 32.0964L20.5606 30.0073C17.4779 27.6952 14.7394 24.9567 12.4273 21.874L10.3382 19.0885C7.44977 15.2373 7.83275 9.84823 11.2368 6.44423C11.8664 5.81461 12.8872 5.81461 13.5168 6.44422L18.199 11.1264C18.8895 11.8169 18.8895 12.9364 18.199 13.6269L16.3935 15.4324C16.1066 15.7194 16.0354 16.1577 16.2169 16.5207C18.3151 20.717 21.7176 24.1196 25.914 26.2177C26.2769 26.3992 26.7153 26.3281 27.0022 26.0411L28.8077 24.2356C29.4982 23.5451 30.6177 23.5451 31.3082 24.2356Z" stroke="#FD0000" stroke-width="3.53623"/>
</svg>
