<svg width="84" height="84" viewBox="0 0 84 84" fill="none" xmlns="http://www.w3.org/2000/svg">
<circle cx="42" cy="42" r="42" fill="white"/>
<path d="M44.1901 18.501L61.1467 23.0228C62.387 23.3535 63.25 24.4768 63.25 25.7604V42.8189C63.25 48.5029 60.4093 53.8108 55.6799 56.9637L43.5716 65.0359C42.6199 65.6704 41.3801 65.6704 40.4283 65.0359L28.3201 56.9637C23.5907 53.8108 20.75 48.5029 20.75 42.8189V25.7604C20.75 24.4768 21.613 23.3535 22.8533 23.0228L39.8099 18.501C41.2449 18.1184 42.7551 18.1184 44.1901 18.501Z" stroke="#FD0000" stroke-width="2.83333" stroke-linecap="round"/>
<path d="M34.9167 40.583L40.0825 45.7488C40.3591 46.0254 40.8076 46.0254 41.0842 45.7488L50.5 36.333" stroke="#FD0000" stroke-width="2.83333" stroke-linecap="round"/>
</svg>
