<svg width="593" height="142" viewBox="0 0 593 142" fill="none" xmlns="http://www.w3.org/2000/svg">
<g filter="url(#filter0_d_112_573)">
<path d="M170.021 70.4338C170.021 83.474 167.486 94.4742 162.415 103.434C157.344 112.357 150.499 119.125 141.882 123.738C133.265 128.314 123.657 130.601 113.057 130.601C102.381 130.601 92.734 128.295 84.1168 123.681C75.5378 119.029 68.7127 112.242 63.6415 103.32C58.6085 94.3598 56.092 83.3977 56.092 70.4338C56.092 57.3937 58.6085 46.4126 63.6415 37.4904C68.7127 28.5301 75.5378 21.7621 84.1168 17.1867C92.734 12.5731 102.381 10.2663 113.057 10.2663C123.657 10.2663 133.265 12.5731 141.882 17.1867C150.499 21.7621 157.344 28.5301 162.415 37.4904C167.486 46.4126 170.021 57.3937 170.021 70.4338ZM137.307 70.4338C137.307 63.4181 136.373 57.5081 134.504 52.7038C132.674 47.8615 129.948 44.2011 126.326 41.7227C122.742 39.2062 118.319 37.9479 113.057 37.9479C107.795 37.9479 103.353 39.2062 99.7307 41.7227C96.1465 44.2011 93.4203 47.8615 91.552 52.7038C89.7218 57.5081 88.8067 63.4181 88.8067 70.4338C88.8067 77.4496 89.7218 83.3786 91.552 88.221C93.4203 93.0253 96.1465 96.6857 99.7307 99.2022C103.353 101.681 107.795 102.92 113.057 102.92C118.319 102.92 122.742 101.681 126.326 99.2022C129.948 96.6857 132.674 93.0253 134.504 88.221C136.373 83.3786 137.307 77.4496 137.307 70.4338ZM254.053 11.8677H285.853V86.9056C285.853 95.8278 283.717 103.549 279.447 110.069C275.215 116.551 269.305 121.565 261.717 125.111C254.129 128.619 245.322 130.373 235.294 130.373C225.189 130.373 216.343 128.619 208.756 125.111C201.168 121.565 195.258 116.551 191.026 110.069C186.832 103.549 184.735 95.8278 184.735 86.9056V11.8677H216.534V84.1603C216.534 87.7825 217.335 91.0235 218.936 93.8832C220.538 96.7047 222.749 98.9162 225.571 100.518C228.43 102.119 231.671 102.92 235.294 102.92C238.954 102.92 242.195 102.119 245.016 100.518C247.838 98.9162 250.05 96.7047 251.651 93.8832C253.252 91.0235 254.053 87.7825 254.053 84.1603V11.8677ZM300.966 129V11.8677H351.525C360.219 11.8677 367.825 13.45 374.345 16.6147C380.865 19.7794 385.937 24.3359 389.559 30.284C393.181 36.2321 394.992 43.3622 394.992 51.6744C394.992 60.0627 393.124 67.1357 389.387 72.8932C385.689 78.6506 380.484 82.9973 373.773 85.9333C367.101 88.8692 359.303 90.3372 350.381 90.3372H320.183V65.6296H343.976C347.712 65.6296 350.896 65.172 353.527 64.2569C356.196 63.3037 358.236 61.7976 359.647 59.7386C361.096 57.6797 361.82 54.9916 361.82 51.6744C361.82 48.319 361.096 45.5928 359.647 43.4957C358.236 41.3605 356.196 39.7972 353.527 38.8058C350.896 37.7763 347.712 37.2616 343.976 37.2616H332.766V129H300.966ZM369.598 75.2381L398.881 129H364.336L335.74 75.2381H369.598Z" fill="#F6F6F6"/>
</g>
<g filter="url(#filter1_d_112_573)">
<path d="M429.595 59.6676C429.747 57.7579 430.463 56.2683 431.743 55.1989C433.003 54.1295 434.923 53.5948 437.501 53.5948C439.143 53.5948 440.489 53.7953 441.54 54.1963C442.571 54.5783 443.335 55.1034 443.831 55.7718C444.328 56.4402 444.586 57.2041 444.605 58.0634C444.643 58.77 444.519 59.4098 444.232 59.9827C443.927 60.5365 443.449 61.0425 442.8 61.5009C442.151 61.9401 441.32 62.3411 440.308 62.704C439.296 63.0668 438.093 63.3914 436.699 63.6779L431.886 64.7091C428.64 65.3966 425.861 66.3037 423.55 67.4304C421.24 68.5571 419.349 69.8844 417.879 71.4121C416.408 72.9207 415.329 74.6204 414.642 76.5109C413.935 78.4015 413.572 80.464 413.553 82.6983C413.572 86.5559 414.537 89.8214 416.446 92.495C418.356 95.1685 421.087 97.2023 424.639 98.5964C428.172 99.9905 432.421 100.687 437.386 100.687C442.485 100.687 446.934 99.9332 450.735 98.4245C454.516 96.9159 457.457 94.5956 459.557 91.4637C461.639 88.3128 462.689 84.2833 462.708 79.3755H447.584C447.488 81.1706 447.039 82.6792 446.237 83.9014C445.435 85.1236 444.309 86.0498 442.857 86.68C441.387 87.3102 439.639 87.6253 437.615 87.6253C435.916 87.6253 434.493 87.4152 433.347 86.9951C432.201 86.575 431.332 85.9925 430.74 85.2477C430.148 84.503 429.843 83.6531 429.824 82.6983C429.843 81.8008 430.139 81.0178 430.712 80.3494C431.266 79.6619 432.182 79.0508 433.462 78.5161C434.741 77.9623 436.469 77.4467 438.646 76.9693L444.49 75.7089C449.684 74.5822 453.781 72.7011 456.779 70.0658C459.758 67.4113 461.238 63.7925 461.219 59.2092C461.238 55.4854 460.245 52.2294 458.24 49.4412C456.215 46.634 453.418 44.4474 449.847 42.8815C446.256 41.3156 442.141 40.5326 437.501 40.5326C432.765 40.5326 428.668 41.3251 425.212 42.9101C421.755 44.4952 419.091 46.7295 417.22 49.6131C415.329 52.4776 414.374 55.8291 414.355 59.6676H429.595ZM407.495 100V41.3346H365.214V54.1677H391.568V64.2508H367.392V77.0838H391.568V87.167H365.329V100H407.495ZM357.316 100V41.3346H331.993C327.639 41.3346 323.829 42.1272 320.564 43.7122C317.298 45.2972 314.758 47.5793 312.944 50.5584C311.13 53.5375 310.223 57.1086 310.223 61.2717C310.223 65.473 311.159 69.0155 313.03 71.8991C314.882 74.7827 317.489 76.9597 320.85 78.4302C324.192 79.9006 328.097 80.6359 332.566 80.6359H347.691V68.2611H335.774C333.903 68.2611 332.308 68.032 330.991 67.5736C329.654 67.0962 328.632 66.3419 327.926 65.3107C327.2 64.2794 326.837 62.9331 326.837 61.2717C326.837 59.5912 327.2 58.2258 327.926 57.1754C328.632 56.106 329.654 55.3231 330.991 54.8265C332.308 54.3109 333.903 54.0531 335.774 54.0531H341.389V100H357.316ZM322.941 73.0735L308.275 100H325.577L339.899 73.0735H322.941ZM289.204 41.3346L277.173 82.6983H276.715L264.684 41.3346H246.695L266.059 100H287.83L307.194 41.3346H289.204ZM225.118 41.3346V100H241.045V41.3346H225.118ZM162.8 63.3342H178.956C179.071 61.9974 179.376 60.7847 179.873 59.6962C180.35 58.6077 181.019 57.672 181.878 56.889C182.718 56.0869 183.74 55.4758 184.943 55.0557C186.146 54.6165 187.512 54.3969 189.039 54.3969C191.713 54.3969 193.976 55.0461 195.828 56.3447C197.662 57.6433 199.056 59.5052 200.01 61.9305C200.946 64.3558 201.414 67.2681 201.414 70.6673C201.414 74.2575 200.937 77.2653 199.982 79.6906C199.008 82.0968 197.604 83.911 195.771 85.1331C193.938 86.3362 191.732 86.9378 189.154 86.9378C187.684 86.9378 186.366 86.7564 185.201 86.3935C184.036 86.0116 183.024 85.4673 182.165 84.7608C181.305 84.0542 180.608 83.2044 180.073 82.2113C179.52 81.1992 179.147 80.0629 178.956 78.8026L162.8 78.9171C162.991 81.3997 163.688 83.93 164.891 86.5081C166.095 89.0671 167.804 91.4351 170.019 93.6121C172.215 95.7701 174.936 97.5079 178.183 98.8255C181.429 100.143 185.201 100.802 189.498 100.802C194.883 100.802 199.714 99.6467 203.992 97.336C208.251 95.0253 211.621 91.6261 214.104 87.1383C216.567 82.6506 217.799 77.1602 217.799 70.6673C217.799 64.1362 216.539 58.6363 214.018 54.1677C211.497 49.6799 208.098 46.2903 203.82 43.9987C199.543 41.6879 194.768 40.5326 189.498 40.5326C185.793 40.5326 182.384 41.0386 179.271 42.0508C176.159 43.0629 173.428 44.5429 171.079 46.4908C168.73 48.4196 166.839 50.7971 165.407 53.6234C163.975 56.4498 163.106 59.6867 162.8 63.3342ZM155.575 100V41.3346H113.294V54.1677H139.648V64.2508H115.471V77.0838H139.648V87.167H113.409V100H155.575ZM73.7711 59.6676C73.9239 57.7579 74.6401 56.2683 75.9195 55.1989C77.1799 54.1295 79.0992 53.5948 81.6772 53.5948C83.3195 53.5948 84.6659 53.7953 85.7162 54.1963C86.7474 54.5783 87.5113 55.1034 88.0078 55.7718C88.5043 56.4402 88.7621 57.2041 88.7812 58.0634C88.8194 58.77 88.6953 59.4098 88.4088 59.9827C88.1033 60.5365 87.6259 61.0425 86.9766 61.5009C86.3273 61.9401 85.4966 62.3411 84.4845 62.704C83.4723 63.0668 82.2692 63.3914 80.8752 63.6779L76.0628 64.7091C72.8163 65.3966 70.0377 66.3037 67.727 67.4304C65.4163 68.5571 63.5257 69.8844 62.0553 71.4121C60.5848 72.9207 59.5058 74.6204 58.8184 76.5109C58.1118 78.4015 57.7489 80.464 57.7298 82.6983C57.7489 86.5559 58.7133 89.8214 60.623 92.495C62.5327 95.1685 65.2635 97.2023 68.8155 98.5964C72.3484 99.9905 76.5975 100.687 81.5626 100.687C86.6615 100.687 91.111 99.9332 94.9113 98.4245C98.6925 96.9159 101.633 94.5956 103.734 91.4637C105.816 88.3128 106.866 84.2833 106.885 79.3755H91.7603C91.6648 81.1706 91.2161 82.6792 90.414 83.9014C89.6119 85.1236 88.4852 86.0498 87.0339 86.68C85.5634 87.3102 83.8161 87.6253 81.7918 87.6253C80.0922 87.6253 78.6695 87.4152 77.5237 86.9951C76.3779 86.575 75.509 85.9925 74.917 85.2477C74.325 84.503 74.0194 83.6531 74.0003 82.6983C74.0194 81.8008 74.3154 81.0178 74.8883 80.3494C75.4421 79.6619 76.3588 79.0508 77.6382 78.5161C78.9177 77.9623 80.646 77.4467 82.823 76.9693L88.6666 75.7089C93.861 74.5822 97.9572 72.7011 100.955 70.0658C103.935 67.4113 105.415 63.7925 105.395 59.2092C105.415 55.4854 104.422 52.2294 102.416 49.4412C100.392 46.634 97.5944 44.4474 94.0233 42.8815C90.4331 41.3156 86.3177 40.5326 81.6772 40.5326C76.9412 40.5326 72.845 41.3251 69.3884 42.9101C65.9319 44.4952 63.2679 46.7295 61.3964 49.6131C59.5058 52.4776 58.551 55.8291 58.5319 59.6676H73.7711Z" fill="#F6F6F6"/>
</g>
<defs>
<filter id="filter0_d_112_573" x="50.5792" y="10.2664" width="353.815" height="131.36" filterUnits="userSpaceOnUse" color-interpolation-filters="sRGB">
<feFlood flood-opacity="0" result="BackgroundImageFix"/>
<feColorMatrix in="SourceAlpha" type="matrix" values="0 0 0 0 0 0 0 0 0 0 0 0 0 0 0 0 0 0 127 0" result="hardAlpha"/>
<feOffset dy="5.51255"/>
<feGaussianBlur stdDeviation="2.75627"/>
<feComposite in2="hardAlpha" operator="out"/>
<feColorMatrix type="matrix" values="0 0 0 0 0 0 0 0 0 0 0 0 0 0 0 0 0 0 0.09 0"/>
<feBlend mode="normal" in2="BackgroundImageFix" result="effect1_dropShadow_112_573"/>
<feBlend mode="normal" in="SourceGraphic" in2="effect1_dropShadow_112_573" result="shape"/>
</filter>
<filter id="filter1_d_112_573" x="44.4079" y="29.9719" width="431.622" height="86.9126" filterUnits="userSpaceOnUse" color-interpolation-filters="sRGB">
<feFlood flood-opacity="0" result="BackgroundImageFix"/>
<feColorMatrix in="SourceAlpha" type="matrix" values="0 0 0 0 0 0 0 0 0 0 0 0 0 0 0 0 0 0 127 0" result="hardAlpha"/>
<feOffset dy="2.76094"/>
<feGaussianBlur stdDeviation="6.66077"/>
<feComposite in2="hardAlpha" operator="out"/>
<feColorMatrix type="matrix" values="0 0 0 0 0 0 0 0 0 0 0 0 0 0 0 0 0 0 0.13 0"/>
<feBlend mode="normal" in2="BackgroundImageFix" result="effect1_dropShadow_112_573"/>
<feBlend mode="normal" in="SourceGraphic" in2="effect1_dropShadow_112_573" result="shape"/>
</filter>
</defs>
</svg>
