<svg width="2257" height="202" viewBox="0 0 2257 202" fill="none" xmlns="http://www.w3.org/2000/svg">
<path d="M39.0675 160V62.3312H0.662162V44.1217H98.9932V62.3312H60.5878V160H39.0675ZM92.9354 160L145.081 44.1217H166.27L218.581 160H196.067L151.206 55.544H159.814L115.118 160H92.9354ZM116.939 133.182L122.733 116.297H185.307L191.101 133.182H116.939ZM213.427 160L262.261 92.7906V109.014L215.744 44.1217H240.079L274.677 92.1284L264.744 92.294L299.011 44.1217H322.352L276.167 107.855V92.294L325.332 160H300.501L264.082 109.014H273.849L237.927 160H213.427ZM338.397 160V44.1217H359.917V160H338.397ZM437.01 160V44.1217H487.665C500.246 44.1217 511.282 46.5497 520.773 51.4055C530.264 56.2614 537.658 62.9933 542.956 71.6014C548.253 80.2095 550.902 90.3627 550.902 102.061C550.902 113.649 548.253 123.802 542.956 132.52C537.658 141.128 530.264 147.86 520.773 152.716C511.282 157.572 500.246 160 487.665 160H437.01ZM458.53 141.791H486.672C495.39 141.791 502.895 140.135 509.185 136.824C515.586 133.514 520.497 128.878 523.918 122.919C527.45 116.959 529.216 110.007 529.216 102.061C529.216 94.0046 527.45 87.0519 523.918 81.2028C520.497 75.2433 515.586 70.6082 509.185 67.2974C502.895 63.9866 495.39 62.3312 486.672 62.3312H458.53V141.791ZM593.639 92.294H651.248V110.007H593.639V92.294ZM595.295 141.956H660.683V160H573.775V44.1217H658.366V62.1656H595.295V141.956ZM764.69 160L714.035 44.1217H737.376L782.569 148.909H769.16L814.849 44.1217H836.369L785.88 160H764.69ZM1040.29 161.655C1031.46 161.655 1023.24 160.221 1015.63 157.351C1008.12 154.372 1001.55 150.233 995.926 144.936C990.408 139.528 986.104 133.182 983.014 125.899C979.924 118.615 978.379 110.669 978.379 102.061C978.379 93.4528 979.924 85.5068 983.014 78.2231C986.104 70.9393 990.463 64.6487 996.091 59.3514C1001.72 53.9438 1008.29 49.8053 1015.79 46.9359C1023.3 43.9562 1031.52 42.4663 1040.46 42.4663C1049.95 42.4663 1058.61 44.1217 1066.45 47.4325C1074.28 50.633 1080.9 55.4337 1086.31 61.8345L1072.41 74.9122C1068.21 70.3875 1063.52 67.0215 1058.33 64.8143C1053.15 62.4967 1047.52 61.3379 1041.45 61.3379C1035.38 61.3379 1029.81 62.3312 1024.73 64.3177C1019.76 66.3041 1015.4 69.1183 1011.65 72.7602C1008.01 76.4021 1005.14 80.7062 1003.04 85.6724C1001.06 90.6386 1000.06 96.1014 1000.06 102.061C1000.06 108.02 1001.06 113.483 1003.04 118.449C1005.14 123.416 1008.01 127.72 1011.65 131.362C1015.4 135.003 1019.76 137.818 1024.73 139.804C1029.81 141.791 1035.38 142.784 1041.45 142.784C1047.52 142.784 1053.15 141.68 1058.33 139.473C1063.52 137.155 1068.21 133.679 1072.41 129.044L1086.31 142.287C1080.9 148.578 1074.28 153.378 1066.45 156.689C1058.61 160 1049.89 161.655 1040.29 161.655ZM1204.24 192.115C1197.51 192.115 1192.43 190.459 1189.01 187.149C1185.59 183.838 1183.88 178.872 1183.88 172.25V126.726C1183.88 123.747 1183.22 121.595 1181.89 120.27C1180.57 118.836 1178.75 118.118 1176.43 118.118H1170.64V111H1176.43C1178.75 111 1180.57 110.338 1181.89 109.014C1183.22 107.689 1183.88 105.537 1183.88 102.557V57.0339C1183.88 50.3019 1185.59 45.3357 1189.01 42.1353C1192.43 38.8244 1197.51 37.169 1204.24 37.169H1209.54V44.2873H1204.74C1200.43 44.2873 1197.23 45.4461 1195.14 47.7636C1193.15 50.0812 1192.16 53.392 1192.16 57.696V102.392C1192.16 105.261 1191.83 107.579 1191.16 109.345C1190.5 111 1189.51 112.269 1188.18 113.152C1186.86 114.035 1185.15 114.752 1183.05 115.304V113.98C1185.15 114.421 1186.86 115.139 1188.18 116.132C1189.51 117.015 1190.5 118.339 1191.16 120.105C1191.83 121.76 1192.16 124.023 1192.16 126.892V171.588C1192.16 175.892 1193.15 179.203 1195.14 181.52C1197.23 183.838 1200.43 184.997 1204.74 184.997H1209.54V192.115H1204.24ZM1329.08 160V44.1217H1377.42C1389.89 44.1217 1399.66 46.66 1406.72 51.7366C1413.78 56.8132 1417.32 64.1521 1417.32 73.7535C1417.32 80.044 1415.83 85.3413 1412.85 89.6453C1409.87 93.9494 1405.73 97.205 1400.43 99.4122C1395.24 101.509 1389.4 102.557 1382.88 102.557L1385.86 99.2467C1393.81 99.2467 1400.6 100.405 1406.23 102.723C1411.85 105.041 1416.1 108.407 1418.97 112.821C1421.95 117.235 1423.44 122.753 1423.44 129.375C1423.44 139.087 1419.91 146.646 1412.85 152.054C1405.78 157.351 1395.08 160 1380.73 160H1329.08ZM1337.53 152.716H1380.73C1391.88 152.716 1400.38 150.84 1406.23 147.088C1412.07 143.225 1415 137.1 1415 128.713C1415 120.436 1412.07 114.421 1406.23 110.669C1400.38 106.806 1391.88 104.875 1380.73 104.875H1336.53V97.5913H1377.09C1387.13 97.5913 1394.91 95.66 1400.43 91.7974C1405.95 87.9348 1408.71 82.1408 1408.71 74.4156C1408.71 66.8008 1405.95 61.062 1400.43 57.1994C1394.91 53.3368 1387.13 51.4055 1377.09 51.4055H1337.53V152.716ZM1512.49 160.662C1503.78 160.662 1496.05 158.786 1489.32 155.034C1482.7 151.282 1477.46 146.095 1473.59 139.473C1469.84 132.851 1467.96 125.292 1467.96 116.794C1467.96 108.186 1469.73 100.626 1473.26 94.1149C1476.9 87.4933 1481.87 82.3064 1488.16 78.5541C1494.45 74.8019 1501.51 72.9258 1509.35 72.9258C1517.18 72.9258 1524.19 74.7467 1530.37 78.3886C1536.66 82.0305 1541.57 87.1622 1545.11 93.7838C1548.75 100.295 1550.57 107.855 1550.57 116.463C1550.57 116.794 1550.51 117.18 1550.4 117.622C1550.4 117.953 1550.4 118.339 1550.4 118.78H1474.09V112.324H1545.93L1542.62 115.47C1542.73 108.738 1541.3 102.723 1538.32 97.4257C1535.45 92.0181 1531.53 87.8244 1526.57 84.8447C1521.6 81.7546 1515.86 80.2095 1509.35 80.2095C1502.95 80.2095 1497.21 81.7546 1492.13 84.8447C1487.17 87.8244 1483.25 92.0181 1480.38 97.4257C1477.51 102.723 1476.08 108.793 1476.08 115.635V117.125C1476.08 124.188 1477.62 130.479 1480.71 135.997C1483.91 141.404 1488.27 145.653 1493.79 148.743C1499.31 151.723 1505.6 153.213 1512.66 153.213C1518.18 153.213 1523.31 152.22 1528.06 150.233C1532.91 148.247 1536.99 145.212 1540.31 141.128L1545.11 146.591C1541.35 151.226 1536.61 154.758 1530.87 157.186C1525.24 159.503 1519.12 160.662 1512.49 160.662ZM1638.58 192.777C1630.75 192.777 1623.3 191.563 1616.24 189.135C1609.17 186.707 1603.43 183.341 1599.02 179.037L1603.49 172.747C1607.79 176.72 1612.92 179.81 1618.88 182.017C1624.95 184.224 1631.47 185.328 1638.42 185.328C1650.01 185.328 1658.5 182.624 1663.91 177.216C1669.43 171.809 1672.19 163.311 1672.19 151.723V127.72L1673.84 114.807L1672.52 101.895V73.5879H1680.47V150.73C1680.47 165.187 1676.93 175.782 1669.87 182.513C1662.92 189.356 1652.49 192.777 1638.58 192.777ZM1636.27 156.855C1628.1 156.855 1620.76 155.089 1614.25 151.557C1607.85 147.916 1602.72 142.949 1598.85 136.659C1595.1 130.258 1593.23 122.974 1593.23 114.807C1593.23 106.53 1595.1 99.2467 1598.85 92.9561C1602.72 86.6656 1607.85 81.7546 1614.25 78.2231C1620.76 74.6915 1628.1 72.9258 1636.27 72.9258C1644.1 72.9258 1651.11 74.6363 1657.29 78.0575C1663.58 81.3683 1668.55 86.169 1672.19 92.4595C1675.83 98.6397 1677.65 106.089 1677.65 114.807C1677.65 123.416 1675.83 130.865 1672.19 137.155C1668.55 143.446 1663.58 148.302 1657.29 151.723C1651.11 155.144 1644.1 156.855 1636.27 156.855ZM1636.93 149.405C1643.88 149.405 1650.01 147.971 1655.3 145.101C1660.6 142.122 1664.74 138.038 1667.72 132.851C1670.81 127.554 1672.35 121.539 1672.35 114.807C1672.35 107.965 1670.81 101.951 1667.72 96.7636C1664.74 91.5766 1660.6 87.5485 1655.3 84.6791C1650.01 81.8098 1643.88 80.3751 1636.93 80.3751C1630.2 80.3751 1624.13 81.8098 1618.72 84.6791C1613.42 87.5485 1609.23 91.5766 1606.14 96.7636C1603.16 101.951 1601.67 107.965 1601.67 114.807C1601.67 121.539 1603.16 127.554 1606.14 132.851C1609.23 138.038 1613.42 142.122 1618.72 145.101C1624.13 147.971 1630.2 149.405 1636.93 149.405ZM1741.99 160V73.5879H1750.26V160H1741.99ZM1746.13 52.5643C1744.25 52.5643 1742.65 51.9021 1741.32 50.5778C1740 49.2535 1739.34 47.7084 1739.34 45.9427C1739.34 44.0666 1740 42.4663 1741.32 41.142C1742.65 39.8177 1744.25 39.1555 1746.13 39.1555C1748.11 39.1555 1749.71 39.8177 1750.93 41.142C1752.25 42.356 1752.91 43.901 1752.91 45.7771C1752.91 47.6533 1752.25 49.2535 1750.93 50.5778C1749.71 51.9021 1748.11 52.5643 1746.13 52.5643ZM1846.73 160.662C1839.34 160.662 1832.94 159.338 1827.53 156.689C1822.12 153.93 1817.93 149.847 1814.95 144.439C1812.08 138.921 1810.64 132.134 1810.64 124.078V73.5879H1818.92V123.416C1818.92 133.127 1821.4 140.521 1826.37 145.598C1831.34 150.675 1838.34 153.213 1847.39 153.213C1853.9 153.213 1859.53 151.833 1864.28 149.074C1869.02 146.315 1872.67 142.453 1875.2 137.487C1877.74 132.41 1879.01 126.45 1879.01 119.608V73.5879H1887.29V160H1879.34V135.997L1880.5 138.811C1877.96 145.543 1873.71 150.895 1867.75 154.868C1861.91 158.731 1854.9 160.662 1846.73 160.662ZM2056.46 72.9258C2063.41 72.9258 2069.43 74.3053 2074.51 77.0643C2079.69 79.7129 2083.72 83.7962 2086.59 89.3143C2089.46 94.7219 2090.89 101.454 2090.89 109.51V160H2082.62V110.172C2082.62 100.461 2080.24 93.0665 2075.5 87.9899C2070.75 82.9134 2064.13 80.3751 2055.63 80.3751C2049.12 80.3751 2043.49 81.7546 2038.75 84.5136C2034 87.2726 2030.36 91.1352 2027.82 96.1014C2025.28 101.068 2024.02 107.027 2024.02 113.98V160H2015.74V110.172C2015.74 100.461 2013.37 93.0665 2008.62 87.9899C2003.87 82.9134 1997.25 80.3751 1988.76 80.3751C1982.24 80.3751 1976.62 81.7546 1971.87 84.5136C1967.12 87.2726 1963.48 91.1352 1960.94 96.1014C1958.41 101.068 1957.14 107.027 1957.14 113.98V160H1948.86V73.5879H1956.81V97.4257L1955.65 94.7771C1958.19 88.0451 1962.43 82.7478 1968.39 78.8852C1974.35 74.9122 1981.53 72.9258 1989.91 72.9258C1998.52 72.9258 2005.75 75.133 2011.6 79.5474C2017.56 83.8514 2021.31 90.3075 2022.86 98.9156L2020.04 97.7568C2022.36 90.3627 2026.72 84.4032 2033.12 79.8785C2039.52 75.2433 2047.3 72.9258 2056.46 72.9258ZM2212.12 192.115H2206.82V184.997H2211.62C2216.04 184.997 2219.24 183.838 2221.22 181.52C2223.32 179.203 2224.37 175.892 2224.37 171.588V126.892C2224.37 124.023 2224.64 121.76 2225.2 120.105C2225.86 118.339 2226.85 117.015 2228.17 116.132C2229.61 115.139 2231.32 114.421 2233.31 113.98V115.304C2231.32 114.752 2229.61 114.035 2228.17 113.152C2226.85 112.269 2225.86 111 2225.2 109.345C2224.64 107.579 2224.37 105.261 2224.37 102.392V57.696C2224.37 53.392 2223.32 50.0812 2221.22 47.7636C2219.24 45.4461 2216.04 44.2873 2211.62 44.2873H2206.82V37.169H2212.12C2218.85 37.169 2223.93 38.8244 2227.35 42.1353C2230.88 45.3357 2232.64 50.3019 2232.64 57.0339V102.557C2232.64 105.537 2233.25 107.689 2234.47 109.014C2235.79 110.338 2237.61 111 2239.93 111H2245.72V118.118H2239.93C2237.61 118.118 2235.79 118.836 2234.47 120.27C2233.25 121.595 2232.64 123.747 2232.64 126.726V172.25C2232.64 178.872 2230.88 183.838 2227.35 187.149C2223.93 190.459 2218.85 192.115 2212.12 192.115Z" fill="white"/>
<path d="M901.601 161.655C892.552 161.655 884.22 160.166 876.605 157.186C868.99 154.206 862.368 150.068 856.74 144.77C851.112 139.363 846.752 133.072 843.662 125.899C840.572 118.615 839.027 110.669 839.027 102.061C839.027 93.4528 840.572 85.562 843.662 78.3886C846.752 71.1048 851.112 64.8143 856.74 59.517C862.368 54.1093 868.99 49.9156 876.605 46.9359C884.22 43.9562 892.497 42.4663 901.436 42.4663C910.485 42.4663 918.762 43.9562 926.267 46.9359C933.882 49.9156 940.503 54.1093 946.132 59.517C951.76 64.8143 956.119 71.1048 959.21 78.3886C962.3 85.562 963.845 93.4528 963.845 102.061C963.845 110.669 962.3 118.615 959.21 125.899C956.119 133.182 951.76 139.473 946.132 144.77C940.503 150.068 933.882 154.206 926.267 157.186C918.762 160.166 910.541 161.655 901.601 161.655ZM901.436 142.784C907.285 142.784 912.693 141.791 917.659 139.804C922.625 137.818 926.929 135.003 930.571 131.362C934.213 127.609 937.027 123.305 939.014 118.449C941.11 113.483 942.159 108.02 942.159 102.061C942.159 96.1014 941.11 90.6938 939.014 85.8379C937.027 80.8717 934.213 76.5676 930.571 72.9258C926.929 69.1735 922.625 66.3041 917.659 64.3177C912.693 62.3312 907.285 61.3379 901.436 61.3379C895.587 61.3379 890.179 62.3312 885.213 64.3177C880.357 66.3041 876.053 69.1735 872.301 72.9258C868.659 76.5676 865.79 80.8717 863.693 85.8379C861.706 90.6938 860.713 96.1014 860.713 102.061C860.713 107.91 861.706 113.318 863.693 118.284C865.79 123.25 868.659 127.609 872.301 131.362C875.943 135.003 880.247 137.818 885.213 139.804C890.179 141.791 895.587 142.784 901.436 142.784Z" fill="#FD0000"/>
</svg>
